<svg width="178" height="64" viewBox="0 0 178 64" fill="none" xmlns="http://www.w3.org/2000/svg">
<mask id="path-1-outside-1_2561_3070" maskUnits="userSpaceOnUse" x="-1" y="1" width="135" height="36" fill="black">
<rect fill="white" x="-1" y="1" width="135" height="36"/>
<path d="M0 11.44V4L16.04 20L32.04 4V36H26.76V16.88L16.04 27.56L0 11.44ZM54.9641 4C59.4041 4 63.1241 5.6 66.2441 8.72C69.4041 11.84 71.0041 15.6 71.0041 20C71.0041 24.44 69.4041 28.2 66.2441 31.28C63.1241 34.4 59.4041 36 54.9641 36C50.5241 36 46.8041 34.4 43.6841 31.28C40.5641 28.16 38.9641 24.44 38.9641 20C38.9641 15.6 40.5641 11.84 43.6841 8.72C46.7641 5.6 50.5241 4 54.9641 4ZM54.9641 9.36C52.0441 9.36 49.5241 10.36 47.4041 12.48C45.3241 14.56 44.3241 17.08 44.3241 20C44.3241 22.92 45.3241 25.48 47.4041 27.56C49.4841 29.64 52.0441 30.64 54.9641 30.64C57.8841 30.64 60.4041 29.64 62.4841 27.56C64.6041 25.44 65.6041 22.92 65.6041 20C65.6041 17.08 64.5641 14.56 62.4841 12.48C60.4041 10.4 57.8841 9.36 54.9641 9.36ZM89.8688 20.68C88.6287 22.48 87.0687 23.76 85.1887 24.52L91.7488 36H85.6287L76.3487 19.96L81.1087 20C82.5487 20 83.7887 19.48 84.8287 18.44C85.9087 17.4 86.4287 16.12 86.4287 14.64C86.4287 13.2 85.9087 11.96 84.8287 10.92C83.7887 9.88 82.5487 9.36 81.1087 9.36H70.4287L69.8287 8.76L67.0687 4H81.1087C84.0287 4 86.5487 5.04 88.6287 7.12C90.7087 9.24 91.7488 11.72 91.7488 14.64C91.7488 16.88 91.1488 18.88 89.8688 20.68ZM111.578 25.36L108.938 30.64L106.218 36H100.298L116.298 4L126.978 25.36H120.978L116.298 15.96L111.578 25.36ZM129.618 30.68L132.298 36H126.338L123.698 30.68H129.618Z"/>
</mask>
<path d="M0 11.44V4L16.04 20L32.04 4V36H26.76V16.88L16.04 27.56L0 11.44ZM54.9641 4C59.4041 4 63.1241 5.6 66.2441 8.72C69.4041 11.84 71.0041 15.6 71.0041 20C71.0041 24.44 69.4041 28.2 66.2441 31.28C63.1241 34.4 59.4041 36 54.9641 36C50.5241 36 46.8041 34.4 43.6841 31.28C40.5641 28.16 38.9641 24.44 38.9641 20C38.9641 15.6 40.5641 11.84 43.6841 8.72C46.7641 5.6 50.5241 4 54.9641 4ZM54.9641 9.36C52.0441 9.36 49.5241 10.36 47.4041 12.48C45.3241 14.56 44.3241 17.08 44.3241 20C44.3241 22.92 45.3241 25.48 47.4041 27.56C49.4841 29.64 52.0441 30.64 54.9641 30.64C57.8841 30.64 60.4041 29.64 62.4841 27.56C64.6041 25.44 65.6041 22.92 65.6041 20C65.6041 17.08 64.5641 14.56 62.4841 12.48C60.4041 10.4 57.8841 9.36 54.9641 9.36ZM89.8688 20.68C88.6287 22.48 87.0687 23.76 85.1887 24.52L91.7488 36H85.6287L76.3487 19.96L81.1087 20C82.5487 20 83.7887 19.48 84.8287 18.44C85.9087 17.4 86.4287 16.12 86.4287 14.64C86.4287 13.2 85.9087 11.96 84.8287 10.92C83.7887 9.88 82.5487 9.36 81.1087 9.36H70.4287L69.8287 8.76L67.0687 4H81.1087C84.0287 4 86.5487 5.04 88.6287 7.12C90.7087 9.24 91.7488 11.72 91.7488 14.64C91.7488 16.88 91.1488 18.88 89.8688 20.68ZM111.578 25.36L108.938 30.64L106.218 36H100.298L116.298 4L126.978 25.36H120.978L116.298 15.96L111.578 25.36ZM129.618 30.68L132.298 36H126.338L123.698 30.68H129.618Z" fill="url(#paint0_linear_2561_3070)"/>
<path d="M0 11.44H-1V11.8528L-0.708864 12.1453L0 11.44ZM0 4L0.706223 3.29201L-1 1.59004L-1 4H0ZM16.04 20L15.3338 20.708L16.0409 21.4133L16.7471 20.7071L16.04 20ZM32.04 4H33.04V1.58579L31.3329 3.29289L32.04 4ZM32.04 36V37H33.04V36H32.04ZM26.76 36H25.76V37H26.76V36ZM26.76 16.88H27.76V14.4722L26.0542 16.1716L26.76 16.88ZM16.04 27.56L15.3311 28.2653L16.0369 28.9746L16.7458 28.2684L16.04 27.56ZM1 11.44V4H-1V11.44H1ZM-0.706223 4.70799L15.3338 20.708L16.7462 19.292L0.706223 3.29201L-0.706223 4.70799ZM16.7471 20.7071L32.7471 4.70711L31.3329 3.29289L15.3329 19.2929L16.7471 20.7071ZM31.04 4V36H33.04V4H31.04ZM32.04 35H26.76V37H32.04V35ZM27.76 36V16.88H25.76V36H27.76ZM26.0542 16.1716L15.3342 26.8516L16.7458 28.2684L27.4658 17.5884L26.0542 16.1716ZM16.7489 26.8547L0.708864 10.7347L-0.708864 12.1453L15.3311 28.2653L16.7489 26.8547ZM66.2441 8.72L65.5369 9.42712L65.5415 9.43159L66.2441 8.72ZM66.2441 31.28L65.546 30.5638L65.537 30.5729L66.2441 31.28ZM43.6841 31.28L44.3912 30.5729L44.3912 30.5729L43.6841 31.28ZM43.6841 8.72L44.3912 9.42712L44.3957 9.42253L43.6841 8.72ZM47.4041 12.48L48.1112 13.1871L48.1112 13.1871L47.4041 12.48ZM62.4841 27.56L61.777 26.8529L61.777 26.8529L62.4841 27.56ZM62.4841 12.48L61.777 13.1871L61.777 13.1871L62.4841 12.48ZM54.9641 5C59.1302 5 62.5983 6.48841 65.537 9.42711L66.9512 8.01289C63.6499 4.71159 59.678 3 54.9641 3V5ZM65.5415 9.43159C68.5155 12.368 70.0041 15.8734 70.0041 20H72.0041C72.0041 15.3266 70.2926 11.312 66.9467 8.0084L65.5415 9.43159ZM70.0041 20C70.0041 24.169 68.514 27.6711 65.5461 30.5639L66.942 31.9961C70.2942 28.7289 72.0041 24.711 72.0041 20H70.0041ZM65.537 30.5729C62.5983 33.5116 59.1302 35 54.9641 35V37C59.678 37 63.6499 35.2884 66.9512 31.9871L65.537 30.5729ZM54.9641 35C50.798 35 47.3299 33.5116 44.3912 30.5729L42.977 31.9871C46.2783 35.2884 50.2502 37 54.9641 37V35ZM44.3912 30.5729C41.4525 27.6342 39.9641 24.1661 39.9641 20H37.9641C37.9641 24.7139 39.6756 28.6858 42.977 31.9871L44.3912 30.5729ZM39.9641 20C39.9641 15.8725 41.4535 12.3648 44.3912 9.42711L42.977 8.01289C39.6747 11.3152 37.9641 15.3275 37.9641 20H39.9641ZM44.3957 9.42253C47.2897 6.49092 50.7942 5 54.9641 5V3C50.2539 3 46.2384 4.70908 42.9724 8.01747L44.3957 9.42253ZM54.9641 8.36C51.7857 8.36 49.0092 9.4606 46.697 11.7729L48.1112 13.1871C50.0389 11.2594 52.3025 10.36 54.9641 10.36V8.36ZM46.697 11.7729C44.4226 14.0472 43.3241 16.8245 43.3241 20H45.3241C45.3241 17.3355 46.2255 15.0728 48.1112 13.1871L46.697 11.7729ZM43.3241 20C43.3241 23.1714 44.4199 25.99 46.697 28.2671L48.1112 26.8529C46.2283 24.97 45.3241 22.6686 45.3241 20H43.3241ZM46.697 28.2671C48.974 30.5442 51.7927 31.64 54.9641 31.64V29.64C52.2955 29.64 49.9941 28.7358 48.1112 26.8529L46.697 28.2671ZM54.9641 31.64C58.1395 31.64 60.9168 30.5414 63.1912 28.2671L61.777 26.8529C59.8913 28.7386 57.6286 29.64 54.9641 29.64V31.64ZM63.1912 28.2671C65.5035 25.9548 66.6041 23.1784 66.6041 20H64.6041C64.6041 22.6616 63.7047 24.9252 61.777 26.8529L63.1912 28.2671ZM66.6041 20C66.6041 16.8146 65.4586 14.0403 63.1912 11.7729L61.777 13.1871C63.6695 15.0797 64.6041 17.3454 64.6041 20H66.6041ZM63.1912 11.7729C60.9237 9.50547 58.1494 8.36 54.9641 8.36V10.36C57.6187 10.36 59.8844 11.2945 61.777 13.1871L63.1912 11.7729ZM89.8688 20.68L89.0538 20.1005L89.0495 20.1066L89.0452 20.1127L89.8688 20.68ZM85.1887 24.52L84.814 23.5929L83.7524 24.022L84.3205 25.0161L85.1887 24.52ZM91.7488 36V37H93.4719L92.617 35.5039L91.7488 36ZM85.6287 36L84.7632 36.5008L85.052 37H85.6287V36ZM76.3487 19.96L76.3572 18.96L74.6064 18.9453L75.4832 20.4608L76.3487 19.96ZM81.1087 20L81.1003 21H81.1087V20ZM84.8287 18.44L84.1351 17.7197L84.1283 17.7262L84.1216 17.7329L84.8287 18.44ZM84.8287 10.92L84.1216 11.6271L84.1283 11.6338L84.1351 11.6403L84.8287 10.92ZM70.4287 9.36L69.7216 10.0671L70.0145 10.36H70.4287V9.36ZM69.8287 8.76L68.9637 9.26161L69.0292 9.37468L69.1216 9.4671L69.8287 8.76ZM67.0687 4V3H65.333L66.2037 4.50161L67.0687 4ZM88.6287 7.12L89.3426 6.41963L89.3359 6.41289L88.6287 7.12ZM89.0452 20.1127C87.9073 21.7646 86.4981 22.9121 84.814 23.5929L85.5635 25.4471C87.6394 24.6079 89.3502 23.1954 90.6923 21.2473L89.0452 20.1127ZM84.3205 25.0161L90.8805 36.4961L92.617 35.5039L86.057 24.0239L84.3205 25.0161ZM91.7488 35H85.6287V37H91.7488V35ZM86.4943 35.4992L77.2143 19.4592L75.4832 20.4608L84.7632 36.5008L86.4943 35.4992ZM76.3403 20.96L81.1003 21L81.1172 19L76.3572 18.96L76.3403 20.96ZM81.1087 21C82.8203 21 84.3128 20.3701 85.5359 19.1471L84.1216 17.7329C83.2647 18.5899 82.2772 19 81.1087 19V21ZM85.5224 19.1603C86.8052 17.9251 87.4287 16.3819 87.4287 14.64H85.4287C85.4287 15.8581 85.0123 16.8749 84.1351 17.7197L85.5224 19.1603ZM87.4287 14.64C87.4287 12.9257 86.7963 11.4264 85.5224 10.1997L84.1351 11.6403C85.0212 12.4936 85.4287 13.4743 85.4287 14.64H87.4287ZM85.5359 10.2129C84.3128 8.98985 82.8203 8.36 81.1087 8.36V10.36C82.2772 10.36 83.2647 10.7701 84.1216 11.6271L85.5359 10.2129ZM81.1087 8.36H70.4287V10.36H81.1087V8.36ZM71.1359 8.65289L70.5359 8.05289L69.1216 9.4671L69.7216 10.0671L71.1359 8.65289ZM70.6938 8.25839L67.9338 3.49839L66.2037 4.50161L68.9637 9.26161L70.6938 8.25839ZM67.0687 5H81.1087V3H67.0687V5ZM81.1087 5C83.7634 5 86.0291 5.93453 87.9216 7.8271L89.3359 6.41289C87.0684 4.14547 84.2941 3 81.1087 3V5ZM87.9149 7.82034C89.8179 9.75989 90.7488 11.9909 90.7488 14.64H92.7488C92.7488 11.4491 91.5996 8.72011 89.3426 6.41966L87.9149 7.82034ZM90.7488 14.64C90.7488 16.6863 90.2055 18.4808 89.0538 20.1005L90.6837 21.2595C92.092 19.2792 92.7488 17.0737 92.7488 14.64H90.7488ZM111.578 25.36L110.685 24.9113L110.684 24.9128L111.578 25.36ZM108.938 30.64L109.83 31.0925L109.833 31.0872L108.938 30.64ZM106.218 36V37H106.832L107.11 36.4525L106.218 36ZM100.298 36L99.404 35.5528L98.6804 37H100.298V36ZM116.298 4L117.193 3.55279L116.298 1.76393L115.404 3.55279L116.298 4ZM126.978 25.36V26.36H128.596L127.873 24.9128L126.978 25.36ZM120.978 25.36L120.083 25.8057L120.359 26.36H120.978V25.36ZM116.298 15.96L117.194 15.5143L116.302 13.7239L115.405 15.5113L116.298 15.96ZM129.618 30.68L130.512 30.2301L130.234 29.68H129.618V30.68ZM132.298 36V37H133.922L133.192 35.5501L132.298 36ZM126.338 36L125.443 36.4445L125.718 37H126.338V36ZM123.698 30.68V29.68H122.086L122.803 31.1245L123.698 30.68ZM110.684 24.9128L108.044 30.1928L109.833 31.0872L112.473 25.8072L110.684 24.9128ZM108.047 30.1875L105.327 35.5475L107.11 36.4525L109.83 31.0925L108.047 30.1875ZM106.218 35H100.298V37H106.218V35ZM101.193 36.4472L117.193 4.44721L115.404 3.55279L99.404 35.5528L101.193 36.4472ZM115.404 4.44721L126.084 25.8072L127.873 24.9128L117.193 3.55279L115.404 4.44721ZM126.978 24.36H120.978V26.36H126.978V24.36ZM121.874 24.9143L117.194 15.5143L115.403 16.4057L120.083 25.8057L121.874 24.9143ZM115.405 15.5113L110.685 24.9113L112.472 25.8087L117.192 16.4087L115.405 15.5113ZM128.725 31.1299L131.405 36.4499L133.192 35.5501L130.512 30.2301L128.725 31.1299ZM132.298 35H126.338V37H132.298V35ZM127.234 35.5555L124.594 30.2355L122.803 31.1245L125.443 36.4445L127.234 35.5555ZM123.698 31.68H129.618V29.68H123.698V31.68Z" fill="url(#paint1_linear_2561_3070)" mask="url(#path-1-outside-1_2561_3070)"/>
<path d="M9.072 53.904C9.072 55.024 8.87133 55.962 8.47 56.718C8.078 57.474 7.49467 58.0433 6.72 58.426C5.95467 58.8087 5.00267 59 3.864 59H1.4V49.004H4.172C5.22667 49.004 6.118 49.1907 6.846 49.564C7.574 49.9373 8.12467 50.488 8.498 51.216C8.88067 51.944 9.072 52.84 9.072 53.904ZM8.232 53.932C8.232 52.9893 8.078 52.21 7.77 51.594C7.462 50.9687 6.99533 50.502 6.37 50.194C5.74467 49.8767 4.96067 49.718 4.018 49.718H2.212V58.286H3.808C5.292 58.286 6.398 57.9267 7.126 57.208C7.86333 56.48 8.232 55.388 8.232 53.932ZM18.5351 55.276C18.5351 55.8547 18.4605 56.382 18.3111 56.858C18.1711 57.3247 17.9565 57.7307 17.6671 58.076C17.3871 58.412 17.0371 58.6733 16.6171 58.86C16.1971 59.0467 15.7165 59.14 15.1751 59.14C14.6618 59.14 14.1998 59.0513 13.7891 58.874C13.3878 58.6873 13.0425 58.426 12.7531 58.09C12.4638 57.7447 12.2445 57.334 12.0951 56.858C11.9458 56.382 11.8711 55.8547 11.8711 55.276C11.8711 54.464 12.0018 53.7733 12.2631 53.204C12.5338 52.6253 12.9211 52.182 13.4251 51.874C13.9385 51.566 14.5451 51.412 15.2451 51.412C15.9545 51.412 16.5518 51.5753 17.0371 51.902C17.5318 52.2193 17.9051 52.6673 18.1571 53.246C18.4091 53.8247 18.5351 54.5013 18.5351 55.276ZM12.6971 55.276C12.6971 55.9107 12.7858 56.4707 12.9631 56.956C13.1405 57.432 13.4158 57.8007 13.7891 58.062C14.1625 58.3233 14.6291 58.454 15.1891 58.454C15.7678 58.454 16.2438 58.3233 16.6171 58.062C16.9905 57.7913 17.2658 57.418 17.4431 56.942C17.6205 56.4567 17.7091 55.9013 17.7091 55.276C17.7091 54.6507 17.6251 54.1 17.4571 53.624C17.2891 53.148 17.0231 52.7747 16.6591 52.504C16.2951 52.2333 15.8191 52.098 15.2311 52.098C14.3818 52.098 13.7471 52.378 13.3271 52.938C12.9071 53.498 12.6971 54.2773 12.6971 55.276ZM30.9477 59L27.3497 49.858H27.3077C27.3263 50.026 27.3357 50.2173 27.3357 50.432C27.345 50.6373 27.3497 50.8567 27.3497 51.09C27.359 51.314 27.3637 51.5473 27.3637 51.79V59H26.6077V49.004H27.8257L31.2697 57.768H31.3257L34.8117 49.004H36.0017V59H35.2037V51.706C35.2037 51.5007 35.2037 51.2907 35.2037 51.076C35.213 50.8613 35.2223 50.6513 35.2317 50.446C35.241 50.2407 35.2503 50.0493 35.2597 49.872H35.2177L31.6057 59H30.9477ZM45.9986 55.276C45.9986 55.8547 45.924 56.382 45.7746 56.858C45.6346 57.3247 45.42 57.7307 45.1306 58.076C44.8506 58.412 44.5006 58.6733 44.0806 58.86C43.6606 59.0467 43.18 59.14 42.6386 59.14C42.1253 59.14 41.6633 59.0513 41.2526 58.874C40.8513 58.6873 40.506 58.426 40.2166 58.09C39.9273 57.7447 39.708 57.334 39.5586 56.858C39.4093 56.382 39.3346 55.8547 39.3346 55.276C39.3346 54.464 39.4653 53.7733 39.7266 53.204C39.9973 52.6253 40.3846 52.182 40.8886 51.874C41.402 51.566 42.0086 51.412 42.7086 51.412C43.418 51.412 44.0153 51.5753 44.5006 51.902C44.9953 52.2193 45.3686 52.6673 45.6206 53.246C45.8726 53.8247 45.9986 54.5013 45.9986 55.276ZM40.1606 55.276C40.1606 55.9107 40.2493 56.4707 40.4266 56.956C40.604 57.432 40.8793 57.8007 41.2526 58.062C41.626 58.3233 42.0926 58.454 42.6526 58.454C43.2313 58.454 43.7073 58.3233 44.0806 58.062C44.454 57.7913 44.7293 57.418 44.9066 56.942C45.084 56.4567 45.1726 55.9013 45.1726 55.276C45.1726 54.6507 45.0886 54.1 44.9206 53.624C44.7526 53.148 44.4866 52.7747 44.1226 52.504C43.7586 52.2333 43.2826 52.098 42.6946 52.098C41.8453 52.098 41.2106 52.378 40.7906 52.938C40.3706 53.498 40.1606 54.2773 40.1606 55.276ZM52.1985 51.426C52.3851 51.426 52.5625 51.44 52.7305 51.468C52.9078 51.4867 53.0665 51.5147 53.2065 51.552L53.0945 52.28C52.9451 52.2427 52.7958 52.2147 52.6465 52.196C52.4971 52.168 52.3338 52.154 52.1565 52.154C51.8205 52.154 51.5171 52.2193 51.2465 52.35C50.9758 52.4807 50.7425 52.6673 50.5465 52.91C50.3505 53.1527 50.2011 53.442 50.0985 53.778C49.9958 54.114 49.9445 54.492 49.9445 54.912V59H49.1465V51.552H49.8185L49.9025 52.952H49.9445C50.0658 52.6627 50.2291 52.406 50.4345 52.182C50.6491 51.9487 50.9058 51.7667 51.2045 51.636C51.5031 51.496 51.8345 51.426 52.1985 51.426ZM58.3168 51.412C58.9608 51.412 59.4928 51.5613 59.9128 51.86C60.3421 52.1493 60.6641 52.5507 60.8788 53.064C61.1028 53.5773 61.2148 54.17 61.2148 54.842V55.374H55.8948C55.8948 56.3727 56.1234 57.1333 56.5808 57.656C57.0474 58.1787 57.7054 58.44 58.5548 58.44C59.0214 58.44 59.4274 58.4027 59.7728 58.328C60.1181 58.2533 60.4961 58.1227 60.9068 57.936V58.664C60.5334 58.832 60.1648 58.9533 59.8008 59.028C59.4368 59.1027 59.0121 59.14 58.5268 59.14C57.7894 59.14 57.1594 58.986 56.6368 58.678C56.1234 58.37 55.7314 57.9313 55.4608 57.362C55.1994 56.7833 55.0688 56.1113 55.0688 55.346C55.0688 54.5807 55.1948 53.904 55.4468 53.316C55.6988 52.728 56.0674 52.266 56.5528 51.93C57.0381 51.5847 57.6261 51.412 58.3168 51.412ZM58.3168 52.084C57.6261 52.084 57.0708 52.3127 56.6508 52.77C56.2308 53.218 55.9834 53.8667 55.9088 54.716H60.3888C60.3888 54.1933 60.3141 53.736 60.1648 53.344C60.0154 52.952 59.7868 52.644 59.4788 52.42C59.1801 52.196 58.7928 52.084 58.3168 52.084ZM73.5421 54.156C73.4954 53.9973 73.4488 53.8433 73.4021 53.694C73.3648 53.5447 73.3274 53.4047 73.2901 53.274C73.2528 53.134 73.2154 52.9987 73.1781 52.868C73.1408 52.7373 73.1081 52.616 73.0801 52.504H73.0381C73.0101 52.616 72.9774 52.7373 72.9401 52.868C72.9121 52.9987 72.8794 53.1387 72.8421 53.288C72.8048 53.428 72.7628 53.5727 72.7161 53.722C72.6788 53.862 72.6368 54.0113 72.5901 54.17L71.0081 59H70.1681L68.0681 51.552H68.8941L70.1541 56.158C70.2288 56.438 70.2941 56.6947 70.3501 56.928C70.4061 57.152 70.4574 57.362 70.5041 57.558C70.5508 57.7447 70.5834 57.9173 70.6021 58.076H70.6441C70.6721 57.964 70.7001 57.8427 70.7281 57.712C70.7654 57.572 70.8028 57.4273 70.8401 57.278C70.8774 57.1287 70.9194 56.97 70.9661 56.802C71.0221 56.6247 71.0781 56.4473 71.1341 56.27L72.6741 51.552H73.5001L74.9701 56.256C75.0448 56.48 75.1101 56.704 75.1661 56.928C75.2314 57.1427 75.2874 57.348 75.3341 57.544C75.3901 57.7307 75.4321 57.908 75.4601 58.076H75.5021C75.5208 57.9173 75.5488 57.7447 75.5861 57.558C75.6328 57.362 75.6841 57.1473 75.7401 56.914C75.8054 56.6807 75.8754 56.4287 75.9501 56.158L77.1681 51.552H77.9801L75.9501 59H75.0681L73.5421 54.156ZM81.303 51.552V59H80.519V51.552H81.303ZM80.911 48.794C81.0884 48.794 81.2237 48.85 81.317 48.962C81.4104 49.0647 81.457 49.2093 81.457 49.396C81.457 49.592 81.4104 49.746 81.317 49.858C81.2237 49.9607 81.0884 50.012 80.911 50.012C80.743 50.012 80.6124 49.9607 80.519 49.858C80.4257 49.746 80.379 49.592 80.379 49.396C80.379 49.2093 80.4257 49.0647 80.519 48.962C80.6124 48.85 80.743 48.794 80.911 48.794ZM86.9929 58.468C87.1983 58.468 87.3943 58.454 87.5809 58.426C87.7676 58.3887 87.9309 58.3467 88.0709 58.3V58.944C87.9309 59 87.7536 59.0467 87.5389 59.084C87.3336 59.1213 87.1143 59.14 86.8809 59.14C86.4703 59.14 86.1203 59.0653 85.8309 58.916C85.5416 58.7573 85.3176 58.5147 85.1589 58.188C85.0096 57.8613 84.9349 57.4413 84.9349 56.928V52.196H83.8429V51.748L84.9349 51.496L85.2289 49.774H85.7329V51.552H88.0289V52.196H85.7329V56.9C85.7329 57.4133 85.8356 57.8053 86.0409 58.076C86.2463 58.3373 86.5636 58.468 86.9929 58.468ZM91.5547 51.776C91.5547 51.9627 91.5501 52.1447 91.5407 52.322C91.5314 52.4993 91.5221 52.6767 91.5127 52.854H91.5687C91.6994 52.574 91.8814 52.3267 92.1147 52.112C92.3481 51.8973 92.6281 51.7293 92.9547 51.608C93.2907 51.4867 93.6687 51.426 94.0887 51.426C94.6581 51.426 95.1387 51.524 95.5308 51.72C95.9228 51.9067 96.2168 52.2007 96.4128 52.602C96.6181 52.994 96.7207 53.5073 96.7207 54.142V59H95.9367V54.184C95.9367 53.4653 95.7734 52.938 95.4467 52.602C95.1201 52.266 94.6394 52.098 94.0047 52.098C93.4634 52.098 93.0107 52.2053 92.6467 52.42C92.2827 52.6253 92.0074 52.9427 91.8207 53.372C91.6434 53.792 91.5547 54.3147 91.5547 54.94V59H90.7707V48.36H91.5547V51.776ZM105.142 59V49.004H105.954V58.272H110.63V59H105.142ZM116.113 51.412C116.757 51.412 117.289 51.5613 117.709 51.86C118.138 52.1493 118.46 52.5507 118.675 53.064C118.899 53.5773 119.011 54.17 119.011 54.842V55.374H113.691C113.691 56.3727 113.919 57.1333 114.377 57.656C114.843 58.1787 115.501 58.44 116.351 58.44C116.817 58.44 117.223 58.4027 117.569 58.328C117.914 58.2533 118.292 58.1227 118.703 57.936V58.664C118.329 58.832 117.961 58.9533 117.597 59.028C117.233 59.1027 116.808 59.14 116.323 59.14C115.585 59.14 114.955 58.986 114.433 58.678C113.919 58.37 113.527 57.9313 113.257 57.362C112.995 56.7833 112.865 56.1113 112.865 55.346C112.865 54.5807 112.991 53.904 113.243 53.316C113.495 52.728 113.863 52.266 114.349 51.93C114.834 51.5847 115.422 51.412 116.113 51.412ZM116.113 52.084C115.422 52.084 114.867 52.3127 114.447 52.77C114.027 53.218 113.779 53.8667 113.705 54.716H118.185C118.185 54.1933 118.11 53.736 117.961 53.344C117.811 52.952 117.583 52.644 117.275 52.42C116.976 52.196 116.589 52.084 116.113 52.084ZM126.819 57.026C126.819 57.474 126.707 57.8567 126.483 58.174C126.259 58.4913 125.933 58.734 125.503 58.902C125.074 59.0607 124.551 59.14 123.935 59.14C123.422 59.14 122.965 59.0933 122.563 59C122.162 58.9067 121.821 58.7947 121.541 58.664V57.894C121.877 58.062 122.255 58.202 122.675 58.314C123.095 58.4167 123.52 58.468 123.949 58.468C124.696 58.468 125.233 58.3467 125.559 58.104C125.886 57.852 126.049 57.5113 126.049 57.082C126.049 56.802 125.97 56.5733 125.811 56.396C125.662 56.2093 125.433 56.046 125.125 55.906C124.827 55.7567 124.453 55.6073 124.005 55.458C123.548 55.2993 123.142 55.1407 122.787 54.982C122.433 54.814 122.157 54.604 121.961 54.352C121.765 54.1 121.667 53.7547 121.667 53.316C121.667 52.7187 121.91 52.252 122.395 51.916C122.881 51.58 123.529 51.412 124.341 51.412C124.789 51.412 125.205 51.454 125.587 51.538C125.979 51.622 126.334 51.734 126.651 51.874L126.371 52.532C126.185 52.448 125.975 52.3733 125.741 52.308C125.508 52.2333 125.27 52.1773 125.027 52.14C124.785 52.1027 124.542 52.084 124.299 52.084C123.711 52.084 123.254 52.1867 122.927 52.392C122.601 52.5973 122.437 52.896 122.437 53.288C122.437 53.5867 122.512 53.8247 122.661 54.002C122.82 54.17 123.049 54.3147 123.347 54.436C123.655 54.5573 124.024 54.6973 124.453 54.856C124.892 55.0053 125.289 55.164 125.643 55.332C126.007 55.5 126.292 55.7147 126.497 55.976C126.712 56.2373 126.819 56.5873 126.819 57.026ZM134.488 57.026C134.488 57.474 134.376 57.8567 134.152 58.174C133.928 58.4913 133.601 58.734 133.172 58.902C132.743 59.0607 132.22 59.14 131.604 59.14C131.091 59.14 130.633 59.0933 130.232 59C129.831 58.9067 129.49 58.7947 129.21 58.664V57.894C129.546 58.062 129.924 58.202 130.344 58.314C130.764 58.4167 131.189 58.468 131.618 58.468C132.365 58.468 132.901 58.3467 133.228 58.104C133.555 57.852 133.718 57.5113 133.718 57.082C133.718 56.802 133.639 56.5733 133.48 56.396C133.331 56.2093 133.102 56.046 132.794 55.906C132.495 55.7567 132.122 55.6073 131.674 55.458C131.217 55.2993 130.811 55.1407 130.456 54.982C130.101 54.814 129.826 54.604 129.63 54.352C129.434 54.1 129.336 53.7547 129.336 53.316C129.336 52.7187 129.579 52.252 130.064 51.916C130.549 51.58 131.198 51.412 132.01 51.412C132.458 51.412 132.873 51.454 133.256 51.538C133.648 51.622 134.003 51.734 134.32 51.874L134.04 52.532C133.853 52.448 133.643 52.3733 133.41 52.308C133.177 52.2333 132.939 52.1773 132.696 52.14C132.453 52.1027 132.211 52.084 131.968 52.084C131.38 52.084 130.923 52.1867 130.596 52.392C130.269 52.5973 130.106 52.896 130.106 53.288C130.106 53.5867 130.181 53.8247 130.33 54.002C130.489 54.17 130.717 54.3147 131.016 54.436C131.324 54.5573 131.693 54.6973 132.122 54.856C132.561 55.0053 132.957 55.164 133.312 55.332C133.676 55.5 133.961 55.7147 134.166 55.976C134.381 56.2373 134.488 56.5873 134.488 57.026ZM153.298 49.004L150.582 59H149.77L147.67 51.65C147.623 51.482 147.576 51.3233 147.53 51.174C147.492 51.0153 147.455 50.866 147.418 50.726C147.38 50.5767 147.348 50.446 147.32 50.334C147.292 50.2127 147.268 50.1053 147.25 50.012C147.231 50.1053 147.212 50.208 147.194 50.32C147.175 50.432 147.147 50.5533 147.11 50.684C147.082 50.8053 147.049 50.936 147.012 51.076C146.974 51.216 146.937 51.3607 146.9 51.51L144.814 59H144.016L141.328 49.004H142.168L143.974 55.864C144.03 56.06 144.076 56.2467 144.114 56.424C144.16 56.6013 144.202 56.774 144.24 56.942C144.277 57.1007 144.31 57.2593 144.338 57.418C144.375 57.5767 144.408 57.7307 144.436 57.88C144.464 57.7213 144.492 57.5627 144.52 57.404C144.557 57.2453 144.594 57.082 144.632 56.914C144.678 56.7367 144.725 56.5593 144.772 56.382C144.818 56.2047 144.87 56.018 144.926 55.822L146.858 49.004H147.67L149.658 55.864C149.723 56.06 149.779 56.2513 149.826 56.438C149.872 56.6247 149.914 56.802 149.952 56.97C149.989 57.1287 150.022 57.2873 150.05 57.446C150.087 57.6047 150.12 57.7587 150.148 57.908C150.185 57.7027 150.222 57.4973 150.26 57.292C150.306 57.0773 150.358 56.8533 150.414 56.62C150.47 56.3867 150.53 56.1393 150.596 55.878L152.444 49.004H153.298ZM161.906 55.276C161.906 55.8547 161.831 56.382 161.682 56.858C161.542 57.3247 161.327 57.7307 161.038 58.076C160.758 58.412 160.408 58.6733 159.988 58.86C159.568 59.0467 159.087 59.14 158.546 59.14C158.033 59.14 157.571 59.0513 157.16 58.874C156.759 58.6873 156.413 58.426 156.124 58.09C155.835 57.7447 155.615 57.334 155.466 56.858C155.317 56.382 155.242 55.8547 155.242 55.276C155.242 54.464 155.373 53.7733 155.634 53.204C155.905 52.6253 156.292 52.182 156.796 51.874C157.309 51.566 157.916 51.412 158.616 51.412C159.325 51.412 159.923 51.5753 160.408 51.902C160.903 52.2193 161.276 52.6673 161.528 53.246C161.78 53.8247 161.906 54.5013 161.906 55.276ZM156.068 55.276C156.068 55.9107 156.157 56.4707 156.334 56.956C156.511 57.432 156.787 57.8007 157.16 58.062C157.533 58.3233 158 58.454 158.56 58.454C159.139 58.454 159.615 58.3233 159.988 58.062C160.361 57.7913 160.637 57.418 160.814 56.942C160.991 56.4567 161.08 55.9013 161.08 55.276C161.08 54.6507 160.996 54.1 160.828 53.624C160.66 53.148 160.394 52.7747 160.03 52.504C159.666 52.2333 159.19 52.098 158.602 52.098C157.753 52.098 157.118 52.378 156.698 52.938C156.278 53.498 156.068 54.2773 156.068 55.276ZM168.106 51.426C168.293 51.426 168.47 51.44 168.638 51.468C168.815 51.4867 168.974 51.5147 169.114 51.552L169.002 52.28C168.853 52.2427 168.703 52.2147 168.554 52.196C168.405 52.168 168.241 52.154 168.064 52.154C167.728 52.154 167.425 52.2193 167.154 52.35C166.883 52.4807 166.65 52.6673 166.454 52.91C166.258 53.1527 166.109 53.442 166.006 53.778C165.903 54.114 165.852 54.492 165.852 54.912V59H165.054V51.552H165.726L165.81 52.952H165.852C165.973 52.6627 166.137 52.406 166.342 52.182C166.557 51.9487 166.813 51.7667 167.112 51.636C167.411 51.496 167.742 51.426 168.106 51.426ZM172.468 53.764C172.468 54.0627 172.463 54.3753 172.454 54.702C172.444 55.0193 172.435 55.3367 172.426 55.654H172.454C172.538 55.5513 172.626 55.444 172.72 55.332C172.813 55.2107 172.911 55.094 173.014 54.982C173.116 54.8607 173.214 54.7487 173.308 54.646L176.136 51.552H177.088L174.134 54.744L177.34 59H176.388L173.588 55.262L172.468 56.424V59H171.684V48.36H172.468V53.764Z" fill="url(#paint2_linear_2561_3070)"/>
<defs>
<linearGradient id="paint0_linear_2561_3070" x1="135" y1="4.00001" x2="-1.80203" y2="23.0788" gradientUnits="userSpaceOnUse">
<stop stop-color="#00C1EC"/>
<stop offset="0.50673" stop-color="#4170DA"/>
<stop offset="1" stop-color="#4700DF"/>
</linearGradient>
<linearGradient id="paint1_linear_2561_3070" x1="135" y1="4.00001" x2="-1.80203" y2="23.0788" gradientUnits="userSpaceOnUse">
<stop stop-color="#00C1EC"/>
<stop offset="0.50673" stop-color="#4170DA"/>
<stop offset="1" stop-color="#4700DF"/>
</linearGradient>
<linearGradient id="paint2_linear_2561_3070" x1="178" y1="44" x2="8.76508" y2="93.7914" gradientUnits="userSpaceOnUse">
<stop stop-color="#00C1EC"/>
<stop offset="0.50673" stop-color="#4170DA"/>
<stop offset="1" stop-color="#4700DF"/>
</linearGradient>
</defs>
</svg>
