<svg width="80" height="20" viewBox="0 0 80 20" fill="none" xmlns="http://www.w3.org/2000/svg">
<mask id="path-1-outside-1_2235_3800" maskUnits="userSpaceOnUse" x="0" y="0" width="80" height="21" fill="black">
<rect fill="white" width="80" height="21"/>
<path d="M0.217499 5.264V0.8L9.8415 10.4L19.4415 0.8V20H16.2735V8.528L9.8415 14.936L0.217499 5.264ZM33.1959 0.8C35.8599 0.8 38.0919 1.76 39.9639 3.632C41.8599 5.504 42.8199 7.76 42.8199 10.4C42.8199 13.064 41.8599 15.32 39.9639 17.168C38.0919 19.04 35.8599 20 33.1959 20C30.5319 20 28.2999 19.04 26.4279 17.168C24.5559 15.296 23.5959 13.064 23.5959 10.4C23.5959 7.76 24.5559 5.504 26.4279 3.632C28.2759 1.76 30.5319 0.8 33.1959 0.8ZM33.1959 4.016C31.4439 4.016 29.9319 4.616 28.6599 5.888C27.4119 7.136 26.8119 8.648 26.8119 10.4C26.8119 12.152 27.4119 13.688 28.6599 14.936C29.9079 16.184 31.4439 16.784 33.1959 16.784C34.9479 16.784 36.4599 16.184 37.7079 14.936C38.9799 13.664 39.5799 12.152 39.5799 10.4C39.5799 8.648 38.9559 7.136 37.7079 5.888C36.4599 4.64 34.9479 4.016 33.1959 4.016ZM54.1387 10.808C53.3947 11.888 52.4587 12.656 51.3307 13.112L55.2667 20H51.5947L46.0267 10.376L48.8827 10.4C49.7467 10.4 50.4907 10.088 51.1147 9.464C51.7627 8.84 52.0747 8.072 52.0747 7.184C52.0747 6.32 51.7627 5.576 51.1147 4.952C50.4907 4.328 49.7467 4.016 48.8827 4.016H42.4747L42.1147 3.656L40.4587 0.8H48.8827C50.6347 0.8 52.1467 1.424 53.3947 2.672C54.6427 3.944 55.2667 5.432 55.2667 7.184C55.2667 8.528 54.9067 9.728 54.1387 10.808ZM67.1646 13.616L65.5806 16.784L63.9486 20H60.3966L69.9966 0.8L76.4046 13.616H72.8046L69.9966 7.976L67.1646 13.616ZM77.9886 16.808L79.5966 20H76.0206L74.4366 16.808H77.9886Z"/>
</mask>
<path d="M0.217499 5.264V0.8L9.8415 10.4L19.4415 0.8V20H16.2735V8.528L9.8415 14.936L0.217499 5.264ZM33.1959 0.8C35.8599 0.8 38.0919 1.76 39.9639 3.632C41.8599 5.504 42.8199 7.76 42.8199 10.4C42.8199 13.064 41.8599 15.32 39.9639 17.168C38.0919 19.04 35.8599 20 33.1959 20C30.5319 20 28.2999 19.04 26.4279 17.168C24.5559 15.296 23.5959 13.064 23.5959 10.4C23.5959 7.76 24.5559 5.504 26.4279 3.632C28.2759 1.76 30.5319 0.8 33.1959 0.8ZM33.1959 4.016C31.4439 4.016 29.9319 4.616 28.6599 5.888C27.4119 7.136 26.8119 8.648 26.8119 10.4C26.8119 12.152 27.4119 13.688 28.6599 14.936C29.9079 16.184 31.4439 16.784 33.1959 16.784C34.9479 16.784 36.4599 16.184 37.7079 14.936C38.9799 13.664 39.5799 12.152 39.5799 10.4C39.5799 8.648 38.9559 7.136 37.7079 5.888C36.4599 4.64 34.9479 4.016 33.1959 4.016ZM54.1387 10.808C53.3947 11.888 52.4587 12.656 51.3307 13.112L55.2667 20H51.5947L46.0267 10.376L48.8827 10.4C49.7467 10.4 50.4907 10.088 51.1147 9.464C51.7627 8.84 52.0747 8.072 52.0747 7.184C52.0747 6.32 51.7627 5.576 51.1147 4.952C50.4907 4.328 49.7467 4.016 48.8827 4.016H42.4747L42.1147 3.656L40.4587 0.8H48.8827C50.6347 0.8 52.1467 1.424 53.3947 2.672C54.6427 3.944 55.2667 5.432 55.2667 7.184C55.2667 8.528 54.9067 9.728 54.1387 10.808ZM67.1646 13.616L65.5806 16.784L63.9486 20H60.3966L69.9966 0.8L76.4046 13.616H72.8046L69.9966 7.976L67.1646 13.616ZM77.9886 16.808L79.5966 20H76.0206L74.4366 16.808H77.9886Z" fill="url(#paint0_linear_2235_3800)"/>
<path d="M0.217499 5.264H0.0174988V5.34655L0.0757261 5.40507L0.217499 5.264ZM0.217499 0.8L0.358743 0.658402L0.0174988 0.318008V0.8H0.217499ZM9.8415 10.4L9.70025 10.5416L9.84168 10.6827L9.98292 10.5414L9.8415 10.4ZM19.4415 0.8H19.6415V0.317157L19.3001 0.658578L19.4415 0.8ZM19.4415 20V20.2H19.6415V20H19.4415ZM16.2735 20H16.0735V20.2H16.2735V20ZM16.2735 8.528H16.4735V8.04643L16.1323 8.38631L16.2735 8.528ZM9.8415 14.936L9.69973 15.0771L9.84088 15.2189L9.98266 15.0777L9.8415 14.936ZM0.417499 5.264V0.8H0.0174988V5.264H0.417499ZM0.0762541 0.941598L9.70025 10.5416L9.98274 10.2584L0.358743 0.658402L0.0762541 0.941598ZM9.98292 10.5414L19.5829 0.941421L19.3001 0.658578L9.70008 10.2586L9.98292 10.5414ZM19.2415 0.8V20H19.6415V0.8H19.2415ZM19.4415 19.8H16.2735V20.2H19.4415V19.8ZM16.4735 20V8.528H16.0735V20H16.4735ZM16.1323 8.38631L9.70034 14.7943L9.98266 15.0777L16.4147 8.66968L16.1323 8.38631ZM9.98327 14.7949L0.359271 5.12293L0.0757261 5.40507L9.69973 15.0771L9.98327 14.7949ZM39.9639 3.632L39.8225 3.77342L39.8234 3.77432L39.9639 3.632ZM39.9639 17.168L39.8243 17.0248L39.8225 17.0266L39.9639 17.168ZM26.4279 17.168L26.5694 17.0266L26.4279 17.168ZM26.4279 3.632L26.5694 3.77342L26.5703 3.77251L26.4279 3.632ZM28.6599 5.888L28.8014 6.02942L28.6599 5.888ZM37.7079 14.936L37.5665 14.7946L37.7079 14.936ZM37.7079 5.888L37.5665 6.02942L37.7079 5.888ZM33.1959 1C35.8052 1 37.9868 1.93768 39.8225 3.77342L40.1054 3.49058C38.1971 1.58232 35.9147 0.6 33.1959 0.6V1ZM39.8234 3.77432C41.6822 5.60959 42.6199 7.81469 42.6199 10.4H43.0199C43.0199 7.70531 42.0377 5.3984 40.1045 3.48968L39.8234 3.77432ZM42.6199 10.4C42.6199 13.0098 41.6819 15.2142 39.8243 17.0248L40.1035 17.3112C42.038 15.4258 43.0199 13.1182 43.0199 10.4H42.6199ZM39.8225 17.0266C37.9868 18.8623 35.8052 19.8 33.1959 19.8V20.2C35.9147 20.2 38.1971 19.2177 40.1054 17.3094L39.8225 17.0266ZM33.1959 19.8C30.5867 19.8 28.4051 18.8623 26.5694 17.0266L26.2865 17.3094C28.1948 19.2177 30.4772 20.2 33.1959 20.2V19.8ZM26.5694 17.0266C24.7336 15.1908 23.7959 13.0092 23.7959 10.4H23.3959C23.3959 13.1188 24.3783 15.4012 26.2865 17.3094L26.5694 17.0266ZM23.7959 10.4C23.7959 7.81451 24.7338 5.60896 26.5694 3.77342L26.2865 3.49058C24.3781 5.39904 23.3959 7.70549 23.3959 10.4H23.7959ZM26.5703 3.77251C28.3811 1.93818 30.586 1 33.1959 1V0.6C30.4779 0.6 28.1708 1.58181 26.2856 3.49149L26.5703 3.77251ZM33.1959 3.816C31.3923 3.816 29.829 4.43612 28.5185 5.74658L28.8014 6.02942C30.0349 4.79588 31.4956 4.216 33.1959 4.216V3.816ZM28.5185 5.74658C27.2316 7.03344 26.6119 8.59691 26.6119 10.4H27.0119C27.0119 8.69909 27.5922 7.23856 28.8014 6.02942L28.5185 5.74658ZM26.6119 10.4C26.6119 12.2023 27.2311 13.79 28.5185 15.0774L28.8014 14.7946C27.5928 13.586 27.0119 12.1017 27.0119 10.4H26.6119ZM28.5185 15.0774C29.8059 16.3648 31.3937 16.984 33.1959 16.984V16.584C31.4942 16.584 30.0099 16.0032 28.8014 14.7946L28.5185 15.0774ZM33.1959 16.984C34.999 16.984 36.5625 16.3643 37.8494 15.0774L37.5665 14.7946C36.3574 16.0037 34.8968 16.584 33.1959 16.584V16.984ZM37.8494 15.0774C39.1598 13.767 39.7799 12.2037 39.7799 10.4H39.3799C39.3799 12.1003 38.8001 13.561 37.5665 14.7946L37.8494 15.0774ZM39.7799 10.4C39.7799 8.59492 39.1348 7.03206 37.8494 5.74658L37.5665 6.02942C38.777 7.23994 39.3799 8.70107 39.3799 10.4H39.7799ZM37.8494 5.74658C36.5639 4.46109 35.001 3.816 33.1959 3.816V4.216C34.8949 4.216 36.356 4.81891 37.5665 6.02942L37.8494 5.74658ZM54.1387 10.808L53.9757 10.6921L53.974 10.6945L54.1387 10.808ZM51.3307 13.112L51.2558 12.9266L51.0435 13.0124L51.1571 13.2112L51.3307 13.112ZM55.2668 20V20.2H55.6114L55.4404 19.9008L55.2668 20ZM51.5947 20L51.4216 20.1002L51.4794 20.2H51.5947V20ZM46.0267 10.376L46.0284 10.176L45.6783 10.1731L45.8536 10.4762L46.0267 10.376ZM48.8827 10.4L48.8811 10.6H48.8827V10.4ZM51.1147 9.464L50.976 9.31991L50.9733 9.32258L51.1147 9.464ZM51.1147 4.952L50.9733 5.09345L50.976 5.09606L51.1147 4.952ZM42.4747 4.016L42.3333 4.15742L42.3919 4.216H42.4747V4.016ZM42.1147 3.656L41.9417 3.75632L41.9548 3.77894L41.9733 3.79742L42.1147 3.656ZM40.4587 0.8V0.6H40.1116L40.2857 0.900322L40.4587 0.8ZM53.3947 2.672L53.5375 2.53192L53.5362 2.53058L53.3947 2.672ZM53.974 10.6945C53.2505 11.7449 52.3446 12.4864 51.2558 12.9266L51.4057 13.2974C52.5729 12.8256 53.539 12.0311 54.3035 10.9215L53.974 10.6945ZM51.1571 13.2112L55.0931 20.0992L55.4404 19.9008L51.5044 13.0128L51.1571 13.2112ZM55.2668 19.8H51.5947V20.2H55.2668V19.8ZM51.7679 19.8998L46.1999 10.2758L45.8536 10.4762L51.4216 20.1002L51.7679 19.8998ZM46.0251 10.576L48.8811 10.6L48.8844 10.2L46.0284 10.176L46.0251 10.576ZM48.8827 10.6C49.801 10.6 50.5956 10.266 51.2562 9.60542L50.9733 9.32258C50.3859 9.90997 49.6924 10.2 48.8827 10.2V10.6ZM51.2535 9.60806C51.942 8.94501 52.2747 8.12437 52.2747 7.184H51.8747C51.8747 8.01963 51.5835 8.73499 50.976 9.31994L51.2535 9.60806ZM52.2747 7.184C52.2747 6.26513 51.9403 5.46928 51.2535 4.80794L50.976 5.09606C51.5852 5.68272 51.8747 6.37487 51.8747 7.184H52.2747ZM51.2562 4.81058C50.5956 4.14997 49.801 3.816 48.8827 3.816V4.216C49.6924 4.216 50.3859 4.50603 50.9733 5.09342L51.2562 4.81058ZM48.8827 3.816H42.4747V4.216H48.8827V3.816ZM42.6162 3.87458L42.2562 3.51458L41.9733 3.79742L42.3333 4.15742L42.6162 3.87458ZM42.2878 3.55568L40.6318 0.699678L40.2857 0.900322L41.9417 3.75632L42.2878 3.55568ZM40.4587 1H48.8827V0.6H40.4587V1ZM48.8827 1C50.5817 1 52.0428 1.60291 53.2533 2.81342L53.5362 2.53058C52.2507 1.24509 50.6878 0.6 48.8827 0.6V1ZM53.252 2.81207C54.4646 4.04798 55.0667 5.48618 55.0667 7.184H55.4667C55.4667 5.37782 54.8209 3.84002 53.5375 2.53193L53.252 2.81207ZM55.0667 7.184C55.0667 8.48927 54.7181 9.64817 53.9758 10.6921L54.3017 10.9239C55.0954 9.80783 55.4667 8.56673 55.4667 7.184H55.0667ZM67.1646 13.616L66.9858 13.5263L66.9857 13.5266L67.1646 13.616ZM65.5806 16.784L65.7589 16.8745L65.7594 16.8734L65.5806 16.784ZM63.9486 20V20.2H64.0713L64.1269 20.0905L63.9486 20ZM60.3966 20L60.2177 19.9106L60.073 20.2H60.3966V20ZM69.9966 0.8L70.1754 0.710557L69.9966 0.352786L69.8177 0.710557L69.9966 0.8ZM76.4046 13.616V13.816H76.7282L76.5834 13.5266L76.4046 13.616ZM72.8046 13.616L72.6255 13.7051L72.6807 13.816H72.8046V13.616ZM69.9966 7.976L70.1756 7.88686L69.9973 7.52878L69.8178 7.88625L69.9966 7.976ZM77.9886 16.808L78.1672 16.718L78.1118 16.608H77.9886V16.808ZM79.5966 20V20.2H79.9213L79.7752 19.91L79.5966 20ZM76.0206 20L75.8414 20.0889L75.8965 20.2H76.0206V20ZM74.4366 16.808V16.608H74.114L74.2574 16.8969L74.4366 16.808ZM66.9857 13.5266L65.4017 16.6946L65.7594 16.8734L67.3434 13.7054L66.9857 13.5266ZM65.4022 16.6935L63.7702 19.9095L64.1269 20.0905L65.7589 16.8745L65.4022 16.6935ZM63.9486 19.8H60.3966V20.2H63.9486V19.8ZM60.5754 20.0894L70.1754 0.889442L69.8177 0.710557L60.2177 19.9106L60.5754 20.0894ZM69.8177 0.889442L76.2257 13.7054L76.5834 13.5266L70.1754 0.710557L69.8177 0.889442ZM76.4046 13.416H72.8046V13.816H76.4046V13.416ZM72.9836 13.5269L70.1756 7.88686L69.8175 8.06514L72.6255 13.7051L72.9836 13.5269ZM69.8178 7.88625L66.9858 13.5263L67.3433 13.7057L70.1753 8.06575L69.8178 7.88625ZM77.8099 16.898L79.4179 20.09L79.7752 19.91L78.1672 16.718L77.8099 16.898ZM79.5966 19.8H76.0206V20.2H79.5966V19.8ZM76.1997 19.9111L74.6157 16.7191L74.2574 16.8969L75.8414 20.0889L76.1997 19.9111ZM74.4366 17.008H77.9886V16.608H74.4366V17.008Z" fill="url(#paint1_linear_2235_3800)" mask="url(#path-1-outside-1_2235_3800)"/>
<defs>
<linearGradient id="paint0_linear_2235_3800" x1="81" y1="1" x2="-1.04809" y2="12.5631" gradientUnits="userSpaceOnUse">
<stop stop-color="#00C1EC"/>
<stop offset="0.50673" stop-color="#4170DA"/>
<stop offset="1" stop-color="#4700DF"/>
</linearGradient>
<linearGradient id="paint1_linear_2235_3800" x1="81" y1="1" x2="-1.04809" y2="12.5631" gradientUnits="userSpaceOnUse">
<stop stop-color="#00C1EC"/>
<stop offset="0.50673" stop-color="#4170DA"/>
<stop offset="1" stop-color="#4700DF"/>
</linearGradient>
</defs>
</svg>
